<svg aria-hidden="true" style="position: absolute; width: 0; height: 0; overflow: hidden;" version="1.1" xmlns="http://www.w3.org/2000/svg" xmlns:xlink="http://www.w3.org/1999/xlink">
<defs>
<symbol id="icon-yandex" viewBox="0 0 32 32">
<path fill="#5b5959" style="fill: var(--color1, #5b5959)" d="M13.8 26.182l3.441-7.601h1.52v7.601h2.16v-20.364h-3.825c-2.435 0-5.336 2.561-5.336 6.721s3.64 5.841 3.64 5.841l-4.321 7.802h2.721zM15.134 15.784c-0.532-0.668-0.995-1.779-0.995-3.624 0-4.041 2.323-4.563 2.644-4.615 0.023-0.004 0.045-0.005 0.068-0.005h1.849v9.241h-1.438c-0.822 0-1.616-0.353-2.128-0.996z"></path>
</symbol>
<symbol id="icon-report" viewBox="0 0 32 32">
<path fill="#fff" style="fill: var(--color1, #fff)" opacity="0.5" d="M4 18.667c0-0.736 0.597-1.333 1.333-1.333h16c2.209 0 4-1.791 4-4v-5.333c0-0.736 0.597-1.333 1.333-1.333s1.333 0.597 1.333 1.333v5.333c0 3.682-2.985 6.667-6.667 6.667h-16c-0.736 0-1.333-0.597-1.333-1.333z"></path>
<path fill="#fff" style="fill: var(--color1, #fff)" opacity="0.5" d="M4.391 19.609c-0.521-0.521-0.521-1.365 0-1.886l5.333-5.333c0.521-0.521 1.365-0.521 1.886 0s0.521 1.365 0 1.886l-4.391 4.391 4.391 4.391c0.521 0.521 0.521 1.365 0 1.886s-1.365 0.521-1.886 0l-5.333-5.333z"></path>
</symbol>
<symbol id="icon-facebook" viewBox="0 0 32 32">
<path fill="#5b5959" style="fill: var(--color2, #5b5959)" d="M32 16c0-8.837-7.163-16-16-16s-16 7.163-16 16c0 7.986 5.851 14.605 13.5 15.806v-11.181h-4.062v-4.625h4.062v-3.525c0-4.010 2.389-6.225 6.044-6.225 1.75 0 3.582 0.313 3.582 0.313v3.938h-2.017c-1.988 0-2.607 1.233-2.607 2.5v3h4.437l-0.709 4.625h-3.728v11.181c7.649-1.2 13.5-7.82 13.5-15.806z"></path>
<path fill="#fff" style="fill: var(--color1, #fff)" d="M22.228 20.625l0.709-4.625h-4.437v-3c0-1.265 0.62-2.5 2.607-2.5h2.018v-3.938c0 0-1.831-0.313-3.582-0.313-3.655 0-6.044 2.215-6.044 6.225v3.525h-4.062v4.625h4.062v11.181c1.657 0.259 3.343 0.259 5 0v-11.181h3.728z"></path>
</symbol>
<symbol id="icon-google" viewBox="0 0 32 32">
<path fill="#5b5959" style="fill: var(--color2, #5b5959)" d="M31.688 16.369c0-1.088-0.088-2.181-0.276-3.251h-15.092v6.161h8.642c-0.359 1.987-1.511 3.745-3.198 4.862v3.998h5.156c3.028-2.787 4.768-6.902 4.768-11.77z"></path>
<path fill="#5b5959" style="fill: var(--color2, #5b5959)" d="M16.32 32.001c4.315 0 7.954-1.417 10.606-3.863l-5.156-3.998c-1.434 0.976-3.286 1.529-5.444 1.529-4.174 0-7.713-2.816-8.983-6.602h-5.321v4.121c2.716 5.403 8.248 8.813 14.298 8.813z"></path>
<path fill="#5b5959" style="fill: var(--color2, #5b5959)" d="M7.337 19.067c-0.67-1.987-0.67-4.139 0-6.126v-4.121h-5.315c-2.269 4.521-2.269 9.848 0 14.369l5.315-4.121z"></path>
<path fill="#5b5959" style="fill: var(--color2, #5b5959)" d="M16.32 6.333c2.281-0.035 4.486 0.823 6.138 2.399l4.568-4.568c-2.892-2.716-6.732-4.209-10.706-4.162-6.050 0-11.582 3.41-14.298 8.819l5.315 4.121c1.264-3.792 4.809-6.608 8.983-6.608z"></path>
</symbol>
<symbol id="icon-thumb--up" viewBox="0 0 32 32">
<path fill="#fff" style="fill: var(--color1, #fff)" opacity="0.5" d="M19.467 10.667h8.533c0.707 0 1.386 0.281 1.886 0.781s0.781 1.178 0.781 1.886v2.805c0 0.348-0.068 0.694-0.2 1.016l-4.128 10.019c-0.1 0.244-0.271 0.453-0.49 0.6s-0.478 0.226-0.742 0.226h-22.44c-0.354 0-0.693-0.14-0.943-0.391s-0.391-0.589-0.391-0.943v-13.333c0-0.354 0.14-0.693 0.391-0.943s0.589-0.391 0.943-0.391h4.643c0.213 0 0.424-0.051 0.613-0.149s0.353-0.24 0.476-0.415l7.271-10.301c0.092-0.13 0.227-0.223 0.382-0.262s0.318-0.021 0.461 0.050l2.419 1.211c0.681 0.34 1.224 0.903 1.541 1.595s0.387 1.471 0.199 2.209l-1.204 4.729zM9.333 14.117v11.216h14.88l3.787-9.195v-2.805h-8.533c-0.406-0-0.807-0.093-1.172-0.271s-0.684-0.438-0.933-0.759c-0.249-0.321-0.422-0.694-0.505-1.092s-0.074-0.809 0.026-1.202l1.204-4.731c0.038-0.148 0.024-0.304-0.040-0.442s-0.172-0.251-0.308-0.319l-0.881-0.44-6.28 8.896c-0.333 0.472-0.76 0.859-1.244 1.144zM6.667 14.667h-2.667v10.667h2.667v-10.667z"></path>
</symbol>
<symbol id="icon-options" viewBox="0 0 32 32">
<path fill="#fff" style="fill: var(--color1, #fff)" opacity="0.5" d="M16 18.667c1.473 0 2.667-1.194 2.667-2.667s-1.194-2.667-2.667-2.667c-1.473 0-2.667 1.194-2.667 2.667s1.194 2.667 2.667 2.667z"></path>
<path fill="#fff" style="fill: var(--color1, #fff)" opacity="0.5" d="M8 18.667c1.473 0 2.667-1.194 2.667-2.667s-1.194-2.667-2.667-2.667c-1.473 0-2.667 1.194-2.667 2.667s1.194 2.667 2.667 2.667z"></path>
<path fill="#fff" style="fill: var(--color1, #fff)" opacity="0.5" d="M24 18.667c1.473 0 2.667-1.194 2.667-2.667s-1.194-2.667-2.667-2.667c-1.473 0-2.667 1.194-2.667 2.667s1.194 2.667 2.667 2.667z"></path>
</symbol>
<symbol id="icon-telegram_button" viewBox="0 0 32 32">
<path fill="#fff" style="fill: var(--color1, #fff)" d="M32 16c0 8.836-7.164 16-16 16s-16-7.164-16-16c0-8.837 7.163-16 16-16s16 7.163 16 16zM16.573 11.812c-1.556 0.647-4.666 1.987-9.331 4.019-0.757 0.301-1.154 0.596-1.19 0.884-0.061 0.487 0.549 0.679 1.379 0.94 0.113 0.036 0.23 0.072 0.35 0.111 0.817 0.266 1.916 0.576 2.487 0.589 0.518 0.011 1.097-0.202 1.735-0.641 4.358-2.942 6.608-4.429 6.749-4.461 0.1-0.023 0.238-0.051 0.331 0.032s0.084 0.241 0.074 0.283c-0.060 0.258-2.454 2.483-3.693 3.634-0.386 0.359-0.66 0.614-0.716 0.672-0.125 0.13-0.253 0.253-0.376 0.372-0.759 0.732-1.328 1.28 0.031 2.176 0.653 0.431 1.176 0.787 1.698 1.142 0.57 0.388 1.138 0.775 1.873 1.257 0.187 0.123 0.366 0.25 0.54 0.374 0.663 0.473 1.258 0.897 1.994 0.829 0.428-0.039 0.869-0.441 1.093-1.64 0.53-2.834 1.572-8.973 1.813-11.503 0.021-0.222-0.005-0.505-0.027-0.63s-0.066-0.302-0.228-0.433c-0.192-0.156-0.488-0.188-0.62-0.186-0.602 0.011-1.525 0.332-5.968 2.18z"></path>
</symbol>
<symbol id="icon-telegram" viewBox="0 0 32 32">
<path fill="#5b5959" style="fill: var(--color2, #5b5959)" d="M16 32c8.837 0 16-7.163 16-16s-7.163-16-16-16c-8.837 0-16 7.163-16 16s7.163 16 16 16z"></path>
<path fill="#fff" style="fill: var(--color1, #fff)" d="M7.243 15.831c4.664-2.032 7.775-3.372 9.331-4.019 4.443-1.848 5.367-2.169 5.968-2.18 0.132-0.002 0.428 0.030 0.62 0.186 0.162 0.131 0.206 0.309 0.228 0.433s0.048 0.408 0.027 0.63c-0.241 2.53-1.283 8.67-1.813 11.503-0.224 1.199-0.666 1.601-1.093 1.64-0.929 0.085-1.635-0.614-2.535-1.204-1.408-0.923-2.204-1.498-3.571-2.398-1.58-1.041-0.556-1.613 0.345-2.548 0.236-0.245 4.329-3.968 4.409-4.306 0.010-0.042 0.019-0.2-0.074-0.283s-0.232-0.055-0.331-0.032c-0.141 0.032-2.391 1.519-6.749 4.461-0.639 0.438-1.217 0.652-1.735 0.641-0.571-0.012-1.67-0.323-2.487-0.588-1.002-0.326-1.798-0.498-1.729-1.051 0.036-0.288 0.433-0.583 1.19-0.884z"></path>
</symbol>
<symbol id="icon-twitter" viewBox="0 0 32 32">
<path fill="#5b5959" style="fill: var(--color2, #5b5959)" d="M10.063 29.001c12.076 0 18.68-10.004 18.68-18.68 0-0.284 0-0.567-0.019-0.849 1.285-0.929 2.394-2.080 3.276-3.398-1.198 0.531-2.469 0.879-3.771 1.033 1.371-0.82 2.396-2.111 2.886-3.631-1.289 0.765-2.699 1.304-4.169 1.594-0.99-1.053-2.299-1.75-3.725-1.983s-2.889 0.009-4.163 0.691c-1.274 0.682-2.288 1.764-2.884 3.080s-0.743 2.792-0.416 4.199c-2.61-0.131-5.164-0.809-7.495-1.991s-4.388-2.84-6.036-4.869c-0.84 1.445-1.097 3.156-0.719 4.785s1.362 3.051 2.752 3.98c-1.045-0.031-2.067-0.313-2.98-0.822v0.083c0 1.516 0.525 2.985 1.485 4.158s2.296 1.978 3.782 2.278c-0.967 0.264-1.981 0.302-2.964 0.113 0.42 1.304 1.237 2.445 2.336 3.262s2.427 1.271 3.798 1.297c-1.361 1.070-2.92 1.861-4.587 2.328s-3.41 0.601-5.129 0.393c3.002 1.927 6.496 2.949 10.063 2.944z"></path>
</symbol>
<symbol id="icon-email" viewBox="0 0 32 32">
<path fill="#fff" style="fill: var(--color1, #fff)" d="M16 5.364c-3.623 0-8.558 0.315-11.692 0.547-1.041 0.077-1.847 0.914-1.847 1.936v1.155l12.542 6.691c0.62 0.33 1.373 0.33 1.992 0l12.542-6.691v-1.155c0-1.022-0.806-1.859-1.847-1.936-3.134-0.232-8.069-0.547-11.692-0.547zM29.538 11.705l-11.347 6.053c-1.363 0.727-3.020 0.727-4.383 0l-11.347-6.053v12.448c0 1.022 0.806 1.859 1.847 1.936 3.134 0.232 8.069 0.547 11.692 0.547s8.558-0.315 11.692-0.547c1.041-0.077 1.847-0.914 1.847-1.936v-12.448zM4.119 3.554c3.136-0.232 8.154-0.554 11.881-0.554s8.745 0.322 11.881 0.554c2.343 0.173 4.119 2.055 4.119 4.292v16.306c0 2.237-1.776 4.119-4.119 4.292-3.136 0.232-8.154 0.554-11.881 0.554s-8.745-0.322-11.881-0.554c-2.343-0.173-4.119-2.055-4.119-4.292v-16.306c0-2.237 1.776-4.119 4.119-4.292z"></path>
</symbol>
<symbol id="icon-vk" viewBox="0 0 32 32">
<path fill="#5b5959" style="fill: var(--color2, #5b5959)" d="M0 15.36c0-7.241 0-10.861 2.249-13.111s5.87-2.249 13.111-2.249h1.28c7.241 0 10.861 0 13.111 2.249s2.249 5.87 2.249 13.111v1.28c0 7.241 0 10.861-2.249 13.111s-5.87 2.249-13.111 2.249h-1.28c-7.241 0-10.861 0-13.111-2.249s-2.249-5.87-2.249-13.111v-1.28z"></path>
<path fill="#fff" style="fill: var(--color1, #fff)" d="M17.027 23.053c-7.293 0-11.453-5-11.627-13.32h3.653c0.12 6.107 2.813 8.693 4.947 9.227v-9.227h3.44v5.267c2.107-0.227 4.32-2.627 5.066-5.267h3.44c-0.573 3.253-2.973 5.653-4.68 6.64 1.707 0.8 4.44 2.893 5.48 6.68h-3.787c-0.813-2.533-2.84-4.493-5.52-4.76v4.76h-0.413z"></path>
</symbol>
<symbol id="icon-share" viewBox="0 0 32 32">
<path fill="#fff" style="fill: var(--color1, #fff)" d="M24.652 12.027c2.585 0 4.68-2.095 4.68-4.68s-2.095-4.68-4.68-4.68c-2.585 0-4.68 2.095-4.68 4.68s2.095 4.68 4.68 4.68z"></path>
<path fill="#fff" style="fill: var(--color1, #fff)" d="M24.652 29.36c2.585 0 4.68-2.095 4.68-4.68s-2.095-4.68-4.68-4.68c-2.585 0-4.68 2.095-4.68 4.68s2.095 4.68 4.68 4.68z"></path>
<path fill="#fff" style="fill: var(--color1, #fff)" d="M11.519 14.907c-0.186-0.002-0.368-0.056-0.525-0.155s-0.285-0.239-0.368-0.405c-0.116-0.237-0.133-0.51-0.048-0.76s0.265-0.456 0.501-0.573l5.173-2.587c0.116-0.059 0.243-0.095 0.373-0.105s0.261 0.006 0.385 0.047c0.124 0.041 0.239 0.106 0.337 0.192s0.179 0.19 0.237 0.307c0.117 0.235 0.136 0.507 0.053 0.757s-0.26 0.457-0.493 0.576l-5.173 2.587c-0.14 0.073-0.295 0.114-0.453 0.12z"></path>
<path fill="#fff" style="fill: var(--color1, #fff)" d="M16.706 21.693c-0.153-0.004-0.303-0.040-0.44-0.107l-5.173-2.587c-0.234-0.12-0.412-0.326-0.496-0.575s-0.069-0.521 0.043-0.758c0.12-0.234 0.327-0.411 0.577-0.493s0.521-0.063 0.757 0.053l5.173 2.587c0.117 0.058 0.221 0.139 0.307 0.237s0.151 0.213 0.192 0.337c0.041 0.124 0.057 0.255 0.047 0.385s-0.046 0.257-0.105 0.373c-0.083 0.163-0.209 0.3-0.364 0.396s-0.334 0.148-0.516 0.151z"></path>
<path fill="#fff" style="fill: var(--color1, #fff)" d="M12.026 16.013c0.004 0.727-0.165 1.445-0.493 2.093-0.472 0.943-1.248 1.699-2.203 2.146s-2.033 0.558-3.059 0.316-1.94-0.824-2.594-1.651c-0.654-0.827-1.010-1.85-1.010-2.904s0.356-2.078 1.010-2.904c0.654-0.827 1.568-1.408 2.594-1.651s2.104-0.131 3.059 0.316c0.955 0.447 1.731 1.203 2.203 2.146 0.329 0.649 0.498 1.366 0.493 2.093z"></path>
</symbol>
<symbol id="icon-thumb--down" viewBox="0 0 32 32">
<path fill="#fff" style="fill: var(--color1, #fff)" opacity="0.5" d="M12.533 21.333h-8.533c-0.707 0-1.386-0.281-1.886-0.781s-0.781-1.178-0.781-1.886v-2.805c-0-0.348 0.068-0.694 0.2-1.016l4.128-10.019c0.1-0.244 0.271-0.453 0.49-0.601s0.477-0.226 0.742-0.226h22.44c0.354 0 0.693 0.14 0.943 0.391s0.391 0.589 0.391 0.943v13.333c0 0.354-0.14 0.693-0.391 0.943s-0.589 0.391-0.943 0.391h-4.643c-0.213-0-0.424 0.051-0.613 0.149s-0.353 0.24-0.476 0.415l-7.271 10.301c-0.092 0.13-0.227 0.223-0.382 0.262s-0.318 0.021-0.461-0.050l-2.419-1.211c-0.681-0.34-1.224-0.903-1.541-1.595s-0.387-1.471-0.199-2.209l1.204-4.729zM22.667 17.883v-11.216h-14.88l-3.787 9.195v2.805h8.533c0.406 0 0.807 0.093 1.172 0.271s0.684 0.438 0.933 0.759c0.249 0.321 0.422 0.694 0.505 1.092s0.074 0.809-0.026 1.202l-1.204 4.731c-0.038 0.147-0.024 0.304 0.040 0.442s0.172 0.251 0.308 0.319l0.881 0.44 6.28-8.896c0.333-0.472 0.76-0.859 1.244-1.144zM25.333 17.333h2.667v-10.667h-2.667v10.667z"></path>
</symbol>
<symbol id="icon-check" viewBox="0 0 38 32">
<path fill="#5600e1" style="fill: var(--color1, #5600e1)" d="M31.498 0.386c-0.234 0.139-4.135 4.098-8.669 8.798l-8.243 8.546-3.887-4.009c-2.138-2.205-4.111-4.080-4.385-4.166-1.125-0.356-1.788 0.040-4.083 2.434l-2.23 2.327v2.203l6.703 6.973c7.111 7.397 7.33 7.574 8.685 6.991 0.324-0.14 5.566-5.43 11.648-11.756l11.059-11.502v-2.209l-2.251-2.341c-1.958-2.036-2.36-2.354-3.086-2.441-0.459-0.055-1.026 0.014-1.26 0.152z"></path>
</symbol>
<symbol id="icon-star" viewBox="0 0 32 32">
<path fill="#fff" style="fill: var(--color2, #fff)" d="M13.727 1.104c1.22-1.339 3.327-1.339 4.546 0 0.809 0.888 2.061 1.224 3.206 0.859 1.726-0.55 3.55 0.504 3.937 2.273 0.257 1.174 1.174 2.090 2.347 2.347 1.769 0.387 2.823 2.212 2.273 3.937-0.365 1.145-0.029 2.397 0.859 3.206 1.339 1.22 1.339 3.327 0 4.546-0.888 0.809-1.224 2.061-0.859 3.206 0.55 1.726-0.504 3.55-2.273 3.937-1.174 0.257-2.090 1.174-2.347 2.347-0.387 1.769-2.211 2.823-3.937 2.273-1.145-0.365-2.397-0.029-3.206 0.859-1.22 1.339-3.327 1.339-4.546 0-0.809-0.888-2.062-1.224-3.206-0.859-1.726 0.55-3.55-0.504-3.937-2.273-0.257-1.174-1.173-2.090-2.347-2.347-1.769-0.387-2.823-2.211-2.273-3.937 0.365-1.145 0.029-2.397-0.859-3.206-1.339-1.22-1.339-3.327 0-4.546 0.888-0.809 1.224-2.062 0.859-3.206-0.55-1.726 0.504-3.55 2.273-3.937 1.174-0.257 2.090-1.173 2.347-2.347 0.387-1.769 2.212-2.823 3.937-2.273 1.145 0.365 2.397 0.029 3.206-0.859z"></path>
</symbol>
<symbol id="icon-check-white" viewBox="0 0 40 32">
<path fill="#fff" style="fill: var(--color1, #fff)" d="M33.073 0.174c-0.246 0.141-4.342 4.164-9.103 8.94l-8.656 8.684-4.082-4.074c-2.245-2.24-4.317-4.146-4.604-4.234-1.181-0.362-1.877 0.040-4.287 2.474l-2.342 2.365v2.238l7.038 7.086c7.466 7.517 7.697 7.697 9.119 7.104 0.341-0.142 5.845-5.518 12.231-11.946l11.612-11.688v-2.245l-2.364-2.379c-2.055-2.069-2.478-2.392-3.24-2.481-0.482-0.056-1.078 0.014-1.323 0.155z"></path>
</symbol>
<symbol id="icon-star-purple" viewBox="0 0 32 32">
<path fill="#5600e1" style="fill: var(--color2, #5600e1)" d="M13.713 1.011c1.227-1.347 3.347-1.347 4.575 0 0.814 0.894 2.074 1.231 3.226 0.865 1.737-0.553 3.572 0.507 3.962 2.287 0.258 1.181 1.181 2.104 2.362 2.362 1.78 0.389 2.84 2.225 2.287 3.962-0.367 1.152-0.029 2.412 0.864 3.226 1.347 1.227 1.347 3.347 0 4.575-0.894 0.814-1.231 2.074-0.864 3.226 0.553 1.737-0.507 3.572-2.287 3.962-1.181 0.258-2.104 1.181-2.362 2.362-0.389 1.78-2.225 2.84-3.962 2.287-1.152-0.367-2.412-0.029-3.226 0.864-1.227 1.347-3.347 1.347-4.575 0-0.814-0.894-2.074-1.231-3.226-0.864-1.737 0.553-3.572-0.507-3.962-2.287-0.258-1.181-1.181-2.104-2.362-2.362-1.78-0.389-2.84-2.225-2.287-3.962 0.367-1.152 0.029-2.412-0.865-3.226-1.347-1.227-1.347-3.347 0-4.575 0.894-0.814 1.231-2.074 0.865-3.226-0.553-1.737 0.507-3.572 2.287-3.962 1.181-0.258 2.104-1.181 2.362-2.362 0.389-1.78 2.225-2.84 3.962-2.287 1.152 0.367 2.412 0.029 3.226-0.865z"></path>
</symbol>
</defs>
</svg>
